<?xml version="1.0" standalone="no"?>
<!DOCTYPE svg PUBLIC "-//W3C//DTD SVG 20010904//EN"
 "http://www.w3.org/TR/2001/REC-SVG-20010904/DTD/svg10.dtd">
<svg version="1.0" xmlns="http://www.w3.org/2000/svg"
 width="1100.000000pt" height="1100.000000pt" viewBox="0 0 1100.000000 1100.000000"
 preserveAspectRatio="xMidYMid meet">
<metadata>
Created by potrace 1.14, written by Peter Selinger 2001-2017
</metadata>
<g transform="translate(0.000000,1100.000000) scale(0.100000,-0.100000)"
fill="#000000" stroke="none">
<path d="M5540 9279 c-107 -3 -213 -11 -235 -18 -22 -6 -56 -13 -75 -16 -19
-3 -51 -8 -70 -12 -19 -3 -39 -7 -45 -7 -47 -6 -165 -29 -185 -37 -41 -15 -69
-20 -180 -28 -58 -4 -115 -13 -128 -20 -12 -6 -27 -9 -32 -6 -6 3 -10 2 -10
-2 0 -5 -10 -9 -23 -11 -12 -1 -59 -13 -102 -28 -44 -14 -89 -28 -100 -30 -44
-7 -180 -65 -292 -124 -195 -104 -343 -172 -420 -195 -13 -3 -23 -11 -23 -16
0 -5 -5 -9 -12 -9 -6 0 -29 -18 -49 -40 -20 -22 -68 -60 -105 -86 -38 -26 -89
-61 -114 -78 -56 -39 -173 -127 -180 -136 -3 -4 -31 -26 -63 -49 -32 -23 -74
-57 -92 -76 -19 -18 -76 -70 -126 -116 -89 -81 -173 -176 -289 -329 -30 -40
-60 -78 -65 -84 -17 -18 -145 -204 -145 -210 0 -3 -18 -33 -40 -67 -22 -34
-40 -68 -40 -76 0 -7 -4 -13 -9 -13 -5 0 -11 -8 -14 -17 -3 -10 -25 -64 -50
-120 -25 -56 -62 -153 -82 -216 -33 -104 -36 -127 -38 -239 -2 -135 5 -158 49
-158 28 0 89 40 126 83 26 31 27 32 42 12 28 -37 16 -57 -40 -69 -40 -9 -59
-30 -79 -86 -8 -25 -29 -71 -46 -103 -17 -32 -35 -84 -39 -115 -5 -31 -12 -73
-15 -92 -6 -31 -2 -40 35 -83 l42 -48 -10 -57 c-6 -31 -11 -64 -11 -72 0 -8
-8 -62 -17 -120 -11 -71 -16 -179 -17 -335 -2 -295 2 -367 29 -535 3 -19 7
-48 9 -65 10 -95 49 -279 82 -390 8 -27 17 -70 19 -95 15 -151 42 -284 90
-455 62 -216 71 -235 230 -461 40 -57 249 -274 330 -342 144 -122 241 -216
337 -327 33 -38 79 -90 101 -115 60 -66 285 -290 333 -331 59 -51 40 -66 -35
-28 -31 15 -59 26 -63 23 -4 -2 -9 0 -11 5 -1 4 -52 33 -113 63 -60 30 -151
76 -202 102 -50 25 -94 46 -98 46 -4 0 -19 8 -33 18 -33 23 -116 47 -131 38
-6 -4 -21 -9 -33 -11 -38 -8 -43 -22 -24 -62 16 -34 84 -142 96 -153 3 -3 18
-23 35 -45 42 -58 125 -140 160 -159 17 -9 37 -20 45 -26 8 -5 57 -30 108 -55
51 -25 100 -50 110 -55 37 -20 190 -89 252 -113 146 -57 176 -67 206 -67 17 0
48 -7 68 -15 21 -9 63 -18 94 -20 52 -4 147 -26 372 -89 47 -14 92 -24 100
-24 16 0 33 -4 98 -21 23 -7 97 -12 165 -12 210 -1 561 -14 573 -22 7 -4 50
-10 95 -13 46 -3 95 -7 109 -9 139 -14 344 -26 380 -23 101 11 337 49 367 59
18 6 36 8 40 6 7 -4 83 8 173 28 14 3 41 8 60 11 19 3 51 10 70 15 19 6 49 13
65 15 50 9 209 55 220 64 6 5 22 11 35 14 23 4 94 34 130 55 8 5 44 24 80 41
36 18 103 58 150 89 47 31 92 59 100 64 8 4 29 16 45 27 17 11 40 25 53 31 12
7 22 16 22 21 0 4 5 8 11 8 5 0 27 13 47 28 58 45 194 145 231 170 18 13 40
29 47 35 7 7 19 17 26 22 160 124 327 287 420 410 12 17 26 32 30 33 5 2 8 8
8 14 0 6 38 50 84 97 46 47 102 106 123 130 21 24 47 53 57 65 68 76 256 352
256 377 0 5 5 9 10 9 6 0 10 6 10 13 0 15 39 99 49 107 4 3 15 26 25 53 10 26
21 47 26 47 4 0 13 20 20 45 7 25 17 45 21 45 5 0 9 7 9 15 0 16 119 287 129
295 10 8 64 142 76 190 1 3 7 18 14 34 6 16 13 36 14 45 1 9 5 21 8 26 12 19
49 140 53 170 2 17 6 37 9 45 3 8 8 33 12 55 4 21 14 53 23 70 20 36 28 148
38 545 6 255 2 360 -22 500 -3 14 -9 87 -14 162 -4 75 -13 146 -20 157 -6 12
-9 25 -6 30 3 4 -2 32 -10 62 -9 30 -18 72 -21 94 -3 22 -10 51 -16 65 -5 14
-11 30 -13 35 -2 6 -17 48 -34 95 -17 47 -38 105 -47 130 -9 25 -19 47 -23 50
-3 3 -14 28 -25 55 -19 52 -69 165 -88 200 -6 11 -31 61 -55 110 -25 50 -60
114 -79 143 -18 29 -33 57 -33 62 0 6 -4 10 -10 10 -5 0 -10 5 -10 11 0 14
-110 182 -122 187 -4 2 -8 8 -8 13 0 5 -19 34 -42 63 -24 30 -59 76 -78 101
-58 79 -147 179 -177 200 -63 45 -138 129 -165 185 -19 40 -79 134 -92 145 -6
6 -22 24 -35 40 -49 65 -167 177 -235 225 -12 8 -32 25 -46 38 -14 13 -50 40
-80 60 -30 21 -84 58 -120 84 -71 50 -195 125 -285 173 -22 12 -51 28 -65 37
-46 29 -163 88 -175 88 -7 0 -26 7 -43 16 -17 8 -41 16 -52 17 -11 1 -20 4
-20 8 0 6 -67 22 -85 20 -2 0 -24 9 -47 19 -24 11 -59 20 -79 20 -20 0 -66 9
-101 20 -35 11 -73 21 -83 23 -11 2 -31 8 -45 14 -131 53 -151 56 -470 60
-210 3 -328 9 -379 19 -41 8 -76 12 -79 9 -2 -2 -12 -1 -21 3 -9 4 -104 4
-211 1z m-89 -1966 c13 -16 12 -17 -3 -4 -10 7 -18 15 -18 17 0 8 8 3 21 -13z
m-104 -49 c-3 -3 -12 -4 -19 -1 -8 3 -5 6 6 6 11 1 17 -2 13 -5z m160 -101
c-3 -10 -5 -4 -5 12 0 17 2 24 5 18 2 -7 2 -21 0 -30z m-250 -20 c-3 -10 -5
-4 -5 12 0 17 2 24 5 18 2 -7 2 -21 0 -30z m17 -39 c3 -8 2 -12 -4 -9 -6 3
-10 10 -10 16 0 14 7 11 14 -7z m136 -7 c0 -2 -10 -12 -22 -23 l-23 -19 19 23
c18 21 26 27 26 19z m380 -61 c0 -2 -7 -7 -16 -10 -8 -3 -12 -2 -9 4 6 10 25
14 25 6z m-330 -20 c0 -2 -8 -10 -17 -17 -16 -13 -17 -12 -4 4 13 16 21 21 21
13z m495 -16 c10 -11 16 -20 13 -20 -3 0 -13 9 -23 20 -10 11 -16 20 -13 20 3
0 13 -9 23 -20z m-694 -17 c13 -16 12 -17 -3 -4 -10 7 -18 15 -18 17 0 8 8 3
21 -13z m640 -60 c13 -16 12 -17 -3 -4 -10 7 -18 15 -18 17 0 8 8 3 21 -13z
m-224 -95 c-2 -13 -4 -5 -4 17 -1 22 1 32 4 23 2 -10 2 -28 0 -40z m250 5 c-3
-10 -5 -4 -5 12 0 17 2 24 5 18 2 -7 2 -21 0 -30z m-17 -57 c0 -2 -8 -10 -17
-17 -16 -13 -17 -12 -4 4 13 16 21 21 21 13z m50 -80 c0 -2 -8 -10 -17 -17
-16 -13 -17 -12 -4 4 13 16 21 21 21 13z m-199 -23 c13 -16 12 -17 -3 -4 -10
7 -18 15 -18 17 0 8 8 3 21 -13z m-2134 -655 c-3 -7 -5 -2 -5 12 0 14 2 19 5
13 2 -7 2 -19 0 -25z m746 5 c-7 -2 -21 -2 -30 0 -10 3 -4 5 12 5 17 0 24 -2
18 -5z m-503 -150 c0 -8 -9 0 -50 45 l-45 47 48 -45 c26 -24 47 -45 47 -47z
m-233 -636 c-1 -128 -2 -20 -2 238 0 259 1 363 2 232 2 -131 2 -343 0 -470z
m1370 627 c-3 -3 -12 -4 -19 -1 -8 3 -5 6 6 6 11 1 17 -2 13 -5z m380 0 c-3
-3 -12 -4 -19 -1 -8 3 -5 6 6 6 11 1 17 -2 13 -5z m386 -1 c-7 -2 -19 -2 -25
0 -7 3 -2 5 12 5 14 0 19 -2 13 -5z m250 0 c-7 -2 -19 -2 -25 0 -7 3 -2 5 12
5 14 0 19 -2 13 -5z m204 1 c-3 -3 -12 -4 -19 -1 -8 3 -5 6 6 6 11 1 17 -2 13
-5z m-247 -8 c0 -2 -8 -10 -17 -17 -16 -13 -17 -12 -4 4 13 16 21 21 21 13z
m597 -19 c-12 -13 -24 -22 -26 -20 -6 4 30 43 40 43 5 0 -2 -10 -14 -23z m702
-21 c-2 -2 -13 8 -23 22 l-19 27 24 -22 c12 -12 21 -24 18 -27z m-982 -618
c-1 -112 -2 -21 -2 202 0 223 1 314 2 203 2 -112 2 -294 0 -405z m1240 580
c-3 -8 -6 -5 -6 6 -1 11 2 17 5 13 3 -3 4 -12 1 -19z m-3477 -83 c13 -14 21
-25 18 -25 -2 0 -15 11 -28 25 -13 14 -21 25 -18 25 2 0 15 -11 28 -25z m-144
-67 c27 -31 27 -32 2 -9 l-28 24 -3 -174 -3 -174 -2 183 c-1 100 -1 182 1 182
2 0 16 -15 33 -32z m329 -108 c27 -27 47 -50 44 -50 -3 0 -27 23 -54 50 -27
28 -47 50 -44 50 3 0 27 -22 54 -50z m-160 -50 c33 -33 57 -60 54 -60 -2 0
-31 27 -64 60 -33 33 -57 60 -54 60 2 0 31 -27 64 -60z m330 -110 c21 -22 37
-40 34 -40 -3 0 -23 18 -44 40 -21 22 -37 40 -34 40 3 0 23 -18 44 -40z m-135
-75 c13 -14 21 -25 18 -25 -2 0 -15 11 -28 25 -13 14 -21 25 -18 25 2 0 15
-11 28 -25z m1037 -67 c-3 -8 -6 -5 -6 6 -1 11 2 17 5 13 3 -3 4 -12 1 -19z
m1623 -121 c0 -2 -17 -19 -37 -38 l-38 -34 34 38 c33 34 41 42 41 34z m-2370
-94 c0 -8 -9 0 -50 45 l-45 47 48 -45 c26 -24 47 -45 47 -47z m3350 84 c0 -2
-12 -14 -27 -28 l-28 -24 24 28 c23 25 31 32 31 24z m-2525 -47 c10 -11 16
-20 13 -20 -3 0 -13 9 -23 20 -10 11 -16 20 -13 20 3 0 13 -9 23 -20z m495 6
c0 -2 -8 -10 -17 -17 -16 -13 -17 -12 -4 4 13 16 21 21 21 13z m-724 -38 l29
-33 -32 29 c-18 17 -33 31 -33 33 0 8 8 1 36 -29z m-1262 -14 c3 -8 2 -12 -4
-9 -6 3 -10 10 -10 16 0 14 7 11 14 -7z m803 -6 c-3 -8 -6 -5 -6 6 -1 11 2 17
5 13 3 -3 4 -12 1 -19z m2001 5 c-32 -2 -84 -2 -115 0 -32 2 -6 3 57 3 63 0
89 -1 58 -3z m990 0 c-32 -2 -84 -2 -115 0 -32 2 -6 3 57 3 63 0 89 -1 58 -3z
m-433 -23 c-10 -11 -22 -20 -28 -20 -5 0 1 9 14 20 31 25 37 25 14 0z m-1672
3 c-7 -2 -19 -2 -25 0 -7 3 -2 5 12 5 14 0 19 -2 13 -5z m-928 -53 c10 -11 16
-20 13 -20 -3 0 -13 9 -23 20 -10 11 -16 20 -13 20 3 0 13 -9 23 -20z m52 -12
c-3 -8 -6 -5 -6 6 -1 11 2 17 5 13 3 -3 4 -12 1 -19z m720 -14 c-3 -3 -12 -4
-19 -1 -8 3 -5 6 6 6 11 1 17 -2 13 -5z m-1780 -721 c-1 -98 -2 -20 -2 172 -1
193 1 273 2 178 2 -94 2 -252 0 -350z m2533 397 l0 -50 -47 2 -48 1 43 4 42 4
0 45 c0 24 2 44 5 44 3 0 5 -22 5 -50z m-2133 -46 c-3 -3 -12 -4 -19 -1 -8 3
-5 6 6 6 11 1 17 -2 13 -5z m340 0 c-3 -3 -12 -4 -19 -1 -8 3 -5 6 6 6 11 1
17 -2 13 -5z m470 0 c-3 -3 -12 -4 -19 -1 -8 3 -5 6 6 6 11 1 17 -2 13 -5z
m411 -1 c-10 -2 -26 -2 -35 0 -10 3 -2 5 17 5 19 0 27 -2 18 -5z m579 1 c-3
-3 -12 -4 -19 -1 -8 3 -5 6 6 6 11 1 17 -2 13 -5z m506 -1 c-24 -2 -62 -2 -85
0 -24 2 -5 4 42 4 47 0 66 -2 43 -4z m714 1 c-3 -3 -12 -4 -19 -1 -8 3 -5 6 6
6 11 1 17 -2 13 -5z m60 0 c-3 -3 -12 -4 -19 -1 -8 3 -5 6 6 6 11 1 17 -2 13
-5z m591 -1 c-10 -2 -26 -2 -35 0 -10 3 -2 5 17 5 19 0 27 -2 18 -5z m219 1
c-3 -3 -12 -4 -19 -1 -8 3 -5 6 6 6 11 1 17 -2 13 -5z m-4070 -81 c-2 -16 -4
-5 -4 22 0 28 2 40 4 28 2 -13 2 -35 0 -50z m1823 63 c0 -2 -7 -7 -16 -10 -8
-3 -12 -2 -9 4 6 10 25 14 25 6z m1197 -28 c-3 -7 -5 -2 -5 12 0 14 2 19 5 13
2 -7 2 -19 0 -25z m1070 -35 c-3 -10 -5 -2 -5 17 0 19 2 27 5 18 2 -10 2 -26
0 -35z m-3874 30 c-7 -2 -19 -2 -25 0 -7 3 -2 5 12 5 14 0 19 -2 13 -5z m1190
0 c-7 -2 -19 -2 -25 0 -7 3 -2 5 12 5 14 0 19 -2 13 -5z m550 0 c-7 -2 -19 -2
-25 0 -7 3 -2 5 12 5 14 0 19 -2 13 -5z m1885 0 c-10 -2 -28 -2 -40 0 -13 2
-5 4 17 4 22 1 32 -1 23 -4z m168 -25 l29 -33 -32 29 c-31 28 -38 36 -30 36 2
0 16 -15 33 -32z m-3085 -5 c-12 -20 -14 -14 -5 12 4 9 9 14 11 11 3 -2 0 -13
-6 -23z m2719 24 c0 -2 -10 -12 -22 -23 l-23 -19 19 23 c18 21 26 27 26 19z
m-2165 -17 c3 -6 -1 -7 -9 -4 -18 7 -21 14 -7 14 6 0 13 -4 16 -10z m1866 -17
l24 -28 -30 25 c-16 14 -32 26 -34 28 -2 1 0 2 6 2 5 0 20 -12 34 -27z m-3010
-10 c13 -16 12 -17 -3 -4 -17 13 -22 21 -14 21 2 0 10 -8 17 -17z m1180 0 c13
-16 12 -17 -3 -4 -10 7 -18 15 -18 17 0 8 8 3 21 -13z m1519 13 c0 -3 -4 -8
-10 -11 -5 -3 -10 -1 -10 4 0 6 5 11 10 11 6 0 10 -2 10 -4z m650 0 c0 -2 -8
-10 -17 -17 -16 -13 -17 -12 -4 4 13 16 21 21 21 13z m-1373 -238 c-1 -46 -3
-11 -3 77 0 88 2 125 3 83 2 -42 2 -114 0 -160z m660 200 c-3 -8 -6 -5 -6 6
-1 11 2 17 5 13 3 -3 4 -12 1 -19z m-1240 -35 c-3 -10 -5 -4 -5 12 0 17 2 24
5 18 2 -7 2 -21 0 -30z m1240 -25 c-3 -7 -5 -2 -5 12 0 14 2 19 5 13 2 -7 2
-19 0 -25z m-2600 -260 c-1 -46 -3 -9 -3 82 0 91 2 128 3 83 2 -46 2 -120 0
-165z m3020 -11 c-1 -45 -3 -5 -3 88 0 94 2 130 3 82 2 -48 2 -125 0 -170z
m-2270 221 c-3 -8 -6 -5 -6 6 -1 11 2 17 5 13 3 -3 4 -12 1 -19z m453 7 c0
-13 -28 -15 -197 -13 l-198 3 193 2 c116 2 192 7 192 13 0 6 2 10 5 10 3 0 5
-7 5 -15z m195 -5 c10 -11 16 -20 13 -20 -3 0 -13 9 -23 20 -10 11 -16 20 -13
20 3 0 13 -9 23 -20z m2322 -17 c-3 -10 -5 -4 -5 12 0 17 2 24 5 18 2 -7 2
-21 0 -30z m-4090 -200 c-1 -43 -3 -8 -3 77 0 85 2 120 3 78 2 -43 2 -113 0
-155z m3550 175 c-2 -13 -4 -5 -4 17 -1 22 1 32 4 23 2 -10 2 -28 0 -40z
m-530 -175 c-1 -43 -3 -10 -3 72 0 83 2 118 3 78 2 -40 2 -107 0 -150z m-2600
-5 c-1 -40 -3 -8 -3 72 0 80 2 112 3 73 2 -40 2 -106 0 -145z m3670 160 c-3
-8 -6 -5 -6 6 -1 11 2 17 5 13 3 -3 4 -12 1 -19z m-2913 -3 c-4 -8 -8 -15 -10
-15 -2 0 -4 7 -4 15 0 8 4 15 10 15 5 0 7 -7 4 -15z m2853 -17 c-3 -8 -6 -5
-6 6 -1 11 2 17 5 13 3 -3 4 -12 1 -19z m-2910 -10 c-3 -8 -6 -5 -6 6 -1 11 2
17 5 13 3 -3 4 -12 1 -19z m960 -85 c-3 -10 -5 -2 -5 17 0 19 2 27 5 18 2 -10
2 -26 0 -35z m1583 2 c13 -14 21 -25 18 -25 -2 0 -15 11 -28 25 -13 14 -21 25
-18 25 2 0 15 -11 28 -25z m427 -67 c-2 -18 -4 -4 -4 32 0 36 2 50 4 33 2 -18
2 -48 0 -65z m-2857 47 c13 -14 21 -25 18 -25 -2 0 -15 11 -28 25 -13 14 -21
25 -18 25 2 0 15 -11 28 -25z m310 -11 c-8 -8 -23 -20 -34 -25 -13 -7 -9 -1 9
15 34 29 43 33 25 10z m2090 -9 c13 -14 21 -25 18 -25 -2 0 -15 11 -28 25 -13
14 -21 25 -18 25 2 0 15 -11 28 -25z m-2445 -5 c10 -11 16 -20 13 -20 -3 0
-13 9 -23 20 -10 11 -16 20 -13 20 3 0 13 -9 23 -20z m2678 -17 c-7 -2 -19 -2
-25 0 -7 3 -2 5 12 5 14 0 19 -2 13 -5z m-1866 -19 c-3 -3 -12 -4 -19 -1 -8 3
-5 6 6 6 11 1 17 -2 13 -5z m2030 -46 c-3 -8 -6 -5 -6 6 -1 11 2 17 5 13 3 -3
4 -12 1 -19z m-4050 -4 c-3 -3 -12 -4 -19 -1 -8 3 -5 6 6 6 11 1 17 -2 13 -5z
m1370 0 c-3 -3 -12 -4 -19 -1 -8 3 -5 6 6 6 11 1 17 -2 13 -5z m526 -1 c-7 -2
-19 -2 -25 0 -7 3 -2 5 12 5 14 0 19 -2 13 -5z m124 1 c-3 -3 -12 -4 -19 -1
-8 3 -5 6 6 6 11 1 17 -2 13 -5z m1678 -172 c-3 -3 -11 0 -18 7 -9 10 -8 11 6
5 10 -3 15 -9 12 -12z m178 -29 c-7 -2 -21 -2 -30 0 -10 3 -4 5 12 5 17 0 24
-2 18 -5z"/>
<path d="M1764 6705 c-31 -16 -49 -36 -93 -108 -81 -133 -163 -345 -136 -354
11 -3 4 -135 -13 -248 -6 -38 -14 -182 -18 -320 -13 -489 -8 -658 23 -805 8
-41 17 -86 19 -100 5 -25 21 -82 31 -110 3 -8 7 -22 8 -30 2 -8 8 -28 14 -45
5 -16 21 -61 35 -100 13 -38 37 -101 52 -140 30 -74 210 -436 222 -445 4 -3
20 -24 35 -48 33 -51 209 -232 225 -232 7 0 20 9 29 19 9 11 20 18 25 15 14
-9 9 24 -10 58 -10 18 -28 58 -41 88 -13 30 -34 79 -47 108 -13 29 -24 59 -24
66 0 7 -6 29 -14 47 -7 19 -17 43 -21 54 -4 11 -10 29 -12 39 -2 11 -8 25 -13
31 -5 6 -11 21 -13 33 -2 12 -6 25 -10 28 -4 4 -7 17 -7 29 0 11 -4 25 -9 31
-6 5 -12 20 -15 34 -5 28 -23 85 -36 115 -5 11 -21 65 -36 120 -14 55 -31 108
-36 118 -5 10 -12 31 -14 45 -3 15 -14 61 -24 102 -10 41 -26 125 -35 185 -10
61 -20 117 -23 125 -3 8 -7 26 -9 40 -2 13 -8 29 -12 35 -18 23 -21 78 -21
448 -1 363 0 389 19 434 21 52 30 107 37 223 3 69 18 122 47 175 6 11 12 57
14 102 3 118 -31 170 -93 138z"/>
</g>
</svg>
