<?xml version="1.0" standalone="no"?>
<!DOCTYPE svg PUBLIC "-//W3C//DTD SVG 20010904//EN"
 "http://www.w3.org/TR/2001/REC-SVG-20010904/DTD/svg10.dtd">
<svg version="1.0" xmlns="http://www.w3.org/2000/svg"
 width="1100.000000pt" height="1100.000000pt" viewBox="0 0 1100.000000 1100.000000"
 preserveAspectRatio="xMidYMid meet">
<metadata>
Created by potrace 1.14, written by Peter Selinger 2001-2017
</metadata>
<g transform="translate(0.000000,1100.000000) scale(0.100000,-0.100000)"
fill="#000000" stroke="none">
<path d="M5405 9292 c-4 -4 -70 -21 -100 -27 -11 -1 -47 -8 -80 -14 -33 -6
-76 -13 -95 -16 -19 -3 -98 -20 -175 -36 -77 -17 -175 -33 -218 -35 -75 -4
-355 -76 -462 -119 -22 -9 -49 -20 -60 -24 -43 -18 -211 -105 -237 -122 -14
-11 -28 -19 -31 -19 -2 0 -40 -17 -83 -37 -44 -20 -81 -37 -84 -38 -3 -1 -21
-8 -40 -16 -19 -9 -57 -24 -84 -34 -29 -11 -69 -39 -100 -70 -28 -28 -94 -80
-146 -115 -165 -111 -348 -251 -434 -333 -28 -27 -84 -79 -125 -115 -64 -58
-189 -201 -271 -312 -14 -18 -34 -45 -46 -59 -42 -52 -174 -249 -174 -260 0
-6 -3 -11 -7 -11 -5 0 -13 -10 -19 -23 -6 -12 -29 -56 -50 -97 -39 -76 -83
-174 -99 -220 -1 -3 -6 -16 -12 -30 -10 -24 -51 -155 -60 -190 -6 -24 -14
-119 -15 -190 -3 -107 34 -150 100 -116 31 16 92 74 92 87 0 18 28 8 33 -12 9
-32 -1 -46 -32 -47 -38 -1 -73 -37 -96 -97 -10 -27 -28 -68 -39 -90 -25 -46
-43 -102 -50 -160 -3 -22 -8 -51 -12 -65 -4 -20 3 -35 39 -74 l44 -49 -13 -61
c-6 -34 -15 -88 -19 -121 -3 -33 -8 -73 -10 -90 -28 -201 -23 -577 11 -825 26
-189 55 -340 88 -455 16 -54 21 -79 31 -165 15 -123 38 -238 72 -350 14 -47
29 -105 33 -130 12 -70 71 -188 152 -307 40 -59 80 -116 88 -126 31 -38 249
-254 314 -312 184 -162 249 -227 381 -380 77 -90 332 -346 385 -387 19 -15 32
-29 29 -33 -9 -8 -121 43 -232 104 -21 12 -44 21 -51 21 -8 0 -16 3 -18 8 -4
10 -302 158 -356 176 -30 11 -50 13 -68 6 -14 -6 -39 -10 -55 -10 -16 0 -29
-3 -29 -7 0 -12 73 -148 94 -175 12 -15 36 -48 55 -75 81 -115 145 -162 365
-271 219 -109 471 -214 521 -217 17 -1 55 -10 85 -18 30 -9 78 -19 105 -21 52
-5 227 -47 305 -73 45 -15 63 -20 110 -29 14 -3 57 -11 95 -19 70 -15 217 -23
540 -30 157 -3 210 -7 290 -20 153 -25 547 -39 640 -23 58 10 163 26 215 32
25 4 56 8 70 10 36 7 102 18 125 21 11 2 79 15 150 30 385 80 546 156 1030
485 76 52 199 143 206 153 3 5 18 16 32 25 134 87 372 318 479 462 30 42 91
112 134 156 105 106 138 144 212 239 91 119 93 122 161 233 53 88 201 381 201
399 0 9 111 257 121 269 31 38 150 378 189 544 13 52 30 109 38 125 9 18 16
62 18 110 1 44 5 134 9 200 10 157 11 509 2 610 -7 79 -10 101 -23 160 -4 17
-8 71 -10 120 -2 98 -7 136 -31 235 -8 36 -17 79 -20 95 -3 17 -17 66 -31 110
-14 44 -27 85 -28 91 -1 6 -9 27 -17 45 -8 19 -36 88 -62 154 -53 133 -193
424 -231 480 -13 20 -24 38 -24 40 0 7 -102 169 -157 248 -146 211 -266 353
-351 414 -49 35 -84 80 -132 168 -58 108 -194 270 -283 338 -19 15 -41 32 -49
39 -7 8 -38 32 -68 56 -30 23 -64 49 -75 58 -33 27 -302 204 -309 204 -4 0
-23 11 -44 24 -90 58 -314 173 -350 179 -9 2 -33 10 -52 19 -19 8 -52 18 -74
22 -21 4 -50 12 -65 18 -32 14 -45 16 -96 22 -39 4 -149 34 -295 83 -100 33
-102 33 -435 38 -159 2 -303 6 -320 9 -46 9 -77 15 -110 22 -30 7 -354 12
-360 6z"/>
<path d="M1763 6713 c-45 -26 -75 -66 -137 -184 -70 -133 -117 -271 -97 -283
15 -10 1 -211 -16 -240 -4 -5 -8 -105 -9 -221 -2 -115 -6 -253 -10 -305 -12
-175 -7 -405 10 -510 3 -14 7 -42 10 -63 22 -147 103 -421 165 -562 5 -11 24
-54 42 -95 50 -115 146 -298 191 -365 74 -109 178 -223 238 -259 28 -16 30
-16 48 4 12 13 25 18 35 14 22 -8 22 -7 -17 72 -18 38 -46 101 -61 139 -15 39
-33 84 -40 100 -40 96 -248 738 -261 805 -2 14 -10 48 -16 75 -7 28 -13 52
-13 55 -1 3 -5 28 -9 55 -19 126 -39 223 -54 260 -14 35 -17 93 -16 435 0 365
1 398 18 430 11 19 20 46 22 60 2 14 5 43 8 65 3 22 7 73 10 112 3 40 13 87
22 104 39 76 56 207 33 252 -13 25 -50 67 -58 67 -4 0 -20 -8 -38 -17z"/>
</g>
</svg>
